<?xml version="1.0" encoding="utf-8"?>
<!-- Generator: Adobe Illustrator 15.0.0, SVG Export Plug-In . SVG Version: 6.00 Build 0)  -->
<!DOCTYPE svg PUBLIC "-//W3C//DTD SVG 1.1//EN" "http://www.w3.org/Graphics/SVG/1.1/DTD/svg11.dtd">
<svg version="1.1" id="Layer_1" xmlns="http://www.w3.org/2000/svg" xmlns:xlink="http://www.w3.org/1999/xlink" x="0px" y="0px"
	 width="21px" height="21px" viewBox="0 0 21 21" enable-background="new 0 0 21 21" xml:space="preserve">
<path fill="#FFFFFF" d="M18,0H3C1.35,0,0,1.35,0,3v15c0,1.65,1.35,3,3,3h15c1.65,0,3-1.35,3-3V3C21,1.35,19.65,0,18,0z M10.5,7
	c1.93,0,3.5,1.57,3.5,3.5S12.43,14,10.5,14S7,12.43,7,10.5S8.57,7,10.5,7z M18,18H3V9h1.181C4.067,9.482,4,9.983,4,10.5
	c0,3.59,2.91,6.5,6.5,6.5s6.5-2.91,6.5-6.5c0-0.517-0.066-1.018-0.181-1.5H18V18z M18,7h-4V3h4V7z"/>
</svg>
