<?xml version="1.0" encoding="utf-8"?>
<!-- Generator: Adobe Illustrator 15.0.0, SVG Export Plug-In . SVG Version: 6.00 Build 0)  -->
<!DOCTYPE svg PUBLIC "-//W3C//DTD SVG 1.1//EN" "http://www.w3.org/Graphics/SVG/1.1/DTD/svg11.dtd">
<svg version="1.1" id="Layer_1" xmlns="http://www.w3.org/2000/svg" xmlns:xlink="http://www.w3.org/1999/xlink" x="0px" y="0px"
	 width="160px" height="65px" viewBox="0 0 160 65" enable-background="new 0 0 160 65" xml:space="preserve">
<g>
	<path d="M157.936,49.374c-1.235,0.161-2.523,0.271-3.757,0.377c0,0.056,0,0.056,0,0.056c-2.415,17.364-26.188,20.231-26.779,6.599
		c-0.269-6.167,11.593-7.95,23.398-9.088c0.429-11.09-15.901,5.667-21.608-4.601c-5.019-9.025,14.632-17.938,16.728-16.102
		c6.438,5.636,3.404,6.618-1.379,8.335c-9.49,3.41-5.791,4.107-4.511,3.726c7.569-2.253,14.366-1.04,14.312,8.317
		c1.288-0.107,2.522-0.163,3.757-0.271C160.403,46.507,160.564,49.157,157.936,49.374z M150.422,50.13
		c-9.124,1.028-17.013,2.436-16.153,5.355C135.985,61.058,147.846,62.303,150.422,50.13z"/>
</g>
<g>
	<path d="M117.678,44.918c-0.682-0.037-0.703-6.038,0.112-11.688c1.005-6.951,11.935-3.357,9.093-1.906
		c-2.975,1.52-4.429,8.718-6.266,12.087C119.982,44.572,118.012,44.937,117.678,44.918z"/>
</g>
<g>
	<path d="M42.105,21.002c2.376,4.866-4.937,8.171-8.292,4.521c-1.398-1.555-0.755-4.56,2.636-6.193
		C38.146,18.494,40.522,17.734,42.105,21.002z"/>
</g>
<g>
	<path d="M57.062,18.861c2.585,5.297-5.38,8.896-9.031,4.922c-1.522-1.695-0.823-4.963,2.873-6.742
		C52.75,16.13,55.336,15.305,57.062,18.861z"/>
</g>
<g>
	<path d="M28.883,61.666c-7.919,5.338-14.219,4.159-12.212-10.848c1.45-10.904-0.948-11.521-3.122-9.442
		c-2.845,2.697-4.628,9.723-4.684,16.412c0.278,1.686,0.614,3.314,1.004,4.776c0.334,1.63-4.907,3.315-7.974,1.011
		C0.837,62.79,0,54.865,0,44.131c0-8.824,1.171-14.895,2.23-15.175c8.029-2.191,9.312,1.348,7.583,7.981
		c-0.725,2.753-1.17,5.396-1.395,7.924c1.673-4.664,4.071-8.485,6.803-10.173c7.416-4.664,13.605-2.473,12.434,6.801
		c-2.007,16.58-2.174,18.827-0.39,17.535C29.496,57.45,30.945,60.262,28.883,61.666z"/>
</g>
<g>
	<path d="M54.982,59.59c-2.175,3.484-7.806,5.171-13.216,4.552c-7.75-0.843-12.545-7.756-10.705-18.097
		c2.008-11.185,18.065-18.322,23.196-10.341c3.735,5.789-2.175,16.017-11.597,19.783c-0.168,0.056-0.335,0.113-0.502,0.168
		c1.951,5.171,6.579,7.476,11.039,2.36C55.316,55.655,56.821,56.667,54.982,59.59z M41.377,52.172
		c5.855-4.159,7.806-13.32,6.189-15.905c-1.728-2.697-5.074,1.517-6.245,11.746C41.21,49.474,41.21,50.878,41.377,52.172z"/>
</g>
<g>
	<path d="M83.091,44.992c-1.597,2.507-3.903,4.384-5.966,5.059c-2.398,0.73-5.185,0.056-5.185-2.698
		c0-1.011,0.892-3.372,3.624-4.721c-0.168-1.911-1.394-2.417-2.286-1.686c-3.345,2.586-7.417,12.25-6.356,19.221
		c0.055,0.168,0.055,0.337,0.055,0.506c0.168,0.617,0.335,1.237,0.558,1.854c0.557,1.574-4.907,3.316-7.973,0.956
		c-1.059-0.788-1.617-6.97-1.617-17.704c0-8.824,1.951-16.636,3.011-16.917c6.412-1.743,10.147,1.292,8.14,7.249
		c-1.171,3.373-2.23,6.801-2.843,10.399c2.453-6.688,6.523-12.872,9.812-14.501c5.856-2.923,10.092,0.956,8.867,7.813
		c-0.056,0.11-0.112,0.393-0.112,0.449c-0.056,0.562-0.566,2.302-0.39,1.741C83.914,43.657,83.538,44.289,83.091,44.992z"/>
</g>
<g>
	<path d="M113.207,26.161c-0.445,2.304-0.836,4.833-1.115,7.531c-1.059,10.06-0.612,18.996,0.613,22.986
		c0.726,2.137,3.457,4.946,6.078,2.023c2.843-3.203,5.967-1.349,2.174,2.416c-2.34,2.305-6.689,3.878-11.039,3.428
		c-3.123-0.393-5.018-2.415-6.134-5.505c-0.444,0.898-0.947,1.685-1.56,2.302c-2.119,2.193-4.685,3.43-7.974,3.092
		c-6.637-0.73-10.538-7.923-8.699-18.153c1.952-10.791,11.319-14.725,16.728-11.857c0.112-1.349,0.223-2.699,0.335-4.104
		c0.055-0.281,0.055-0.562,0.11-0.843c-1.561,0.338-3.233,0.675-4.962,0.956C73.787,34.423,82.04,14.864,87.894,9.75
		c6.636-5.733,7.36-1.855,5.297-0.562c-3.68,2.36-5.297,15.905,5.241,15.905c1.729,0,3.346-0.112,4.962-0.281
		c3.291-18.322,13.271-27.203,21.356-24.28C133.726,3.792,132.779,18.067,113.207,26.161z M102.279,50.554
		c-0.224-3.542-0.224-7.532-0.167-11.636c0-0.506,0.056-1.011,0.056-1.461c-3.346-1.518-6.635,3.653-7.473,10.792
		c-0.946,8.373,2.788,12.813,4.908,10.791C101.22,57.409,102.056,52.237,102.279,50.554z M126.365,7.389
		c-1.784-2.642-8.307,0.562-12.098,14.332C123.802,17.167,127.593,9.299,126.365,7.389z"/>
</g>
</svg>
