<?xml version="1.0" encoding="utf-8"?>
<!-- Generator: Adobe Illustrator 15.0.0, SVG Export Plug-In . SVG Version: 6.00 Build 0)  -->
<!DOCTYPE svg PUBLIC "-//W3C//DTD SVG 1.1//EN" "http://www.w3.org/Graphics/SVG/1.1/DTD/svg11.dtd">
<svg version="1.1" id="Layer_1" xmlns="http://www.w3.org/2000/svg" xmlns:xlink="http://www.w3.org/1999/xlink" x="0px" y="0px"
	 width="26px" height="15px" viewBox="0 0 26 15" enable-background="new 0 0 26 15" xml:space="preserve">
<path fill="#FFFFFF" d="M16.138,11.51c0.956-0.309,2.18,2.04,3.483,2.939c0.978,0.681,1.727,0.534,1.727,0.534l3.473-0.05
	c0,0,1.815-0.112,0.957-1.554c-0.071-0.12-0.503-1.069-2.585-3.022c-2.177-2.043-1.882-1.712,0.739-5.244
	c1.597-2.153,2.236-3.468,2.036-4.028c-0.192-0.539-1.365-0.399-1.365-0.399L20.69,0.713c-0.381,0.001-0.704,0.119-0.851,0.515
	c-0.003,0.004-0.621,1.666-1.445,3.079c-1.741,2.989-2.436,3.148-2.724,2.961c-0.661-0.433-0.494-1.737-0.494-2.664
	c0-2.897,0.432-4.105-0.846-4.417c-0.427-0.104-0.739-0.172-1.828-0.182c-1.392-0.021-2.574,0-3.244,0.329
	c-0.445,0.223-0.786,0.712-0.579,0.74c0.26,0.035,0.843,0.16,1.155,0.586c0.401,0.552,0.389,1.789,0.389,1.789
	s0.229,3.411-0.54,3.834c-0.528,0.29-1.25-0.302-2.803-3.016C6.087,2.879,5.488,1.345,5.488,1.345S5.372,1.06,5.162,0.904
	C4.912,0.719,4.562,0.66,4.562,0.66L0.848,0.684c0,0-0.558,0.016-0.763,0.262C-0.097,1.164,0.07,1.614,0.07,1.614
	s2.909,6.881,6.203,10.347c3.02,3.182,6.452,2.971,6.452,2.971h1.555c0,0,0.469-0.054,0.709-0.312
	c0.224-0.24,0.214-0.691,0.214-0.691S15.172,11.82,16.138,11.51z"/>
</svg>
